<svg xmlns="http://www.w3.org/2000/svg" width="24" height="24" viewBox="29 22 24 24" enable-background="new 29 22 24 24"><path fill="#9AB4B7" d="M52.5 46h-3.5c-.3 0-.5-.2-.5-.5 0-10.5-8.5-19-19-19-.3 0-.5-.2-.5-.5v-3.5c0-.3.2-.5.5-.5 13 0 23.5 10.5 23.5 23.5 0 .3-.2.5-.5.5zm-7.5 0h-3.5c-.3 0-.5-.2-.5-.5 0-6.4-5.1-11.5-11.5-11.5-.3 0-.5-.2-.5-.5v-3.5c0-.3.2-.5.5-.5 8.8 0 16 7.2 16 16 0 .3-.2.5-.5.5zm-12.2 0c-2.1 0-3.8-1.7-3.8-3.8 0-2.1 1.7-3.8 3.8-3.8 2.1 0 3.8 1.7 3.8 3.8-.1 2.1-1.8 3.8-3.8 3.8z"/></svg>