<svg xmlns="http://www.w3.org/2000/svg" width="121" height="121" viewBox="0 0 121 121"><path clip-rule="evenodd" stroke="#D26936" stroke-width="2" stroke-miterlimit="10" d="M60.5 1c32.8 0 59.5 26.6 59.5 59.5s-26.7 59.5-59.5 59.5-59.5-26.7-59.5-59.5 26.6-59.5 59.5-59.5z" fill="none"/><g fill="#D26936"><path d="M29.8 51.5c0 1.6-.4 2.7-1.1 3.6s-1.7 1.2-3 1.2c-1.2 0-2.2-.4-2.9-1.2s-1.1-2-1.1-3.6v-3.6c0-1.6.4-2.7 1.1-3.6s1.7-1.2 2.9-1.2c1.3 0 2.3.4 3 1.2s1.1 2 1.1 3.6v3.6zm-1-3.6c0-1.3-.3-2.2-.8-2.9s-1.3-1-2.2-1c-.9 0-1.7.3-2.2 1s-.8 1.6-.8 2.9v3.6c0 1.3.3 2.2.8 2.9s1.2 1 2.2 1c1 0 1.7-.3 2.2-1s.8-1.6.8-2.9v-3.6zM40.9 43.3v9c0 1.3-.3 2.3-1 3s-1.6 1-2.7 1-2-.3-2.7-1-1-1.7-1-3v-9h1v9c0 1 .2 1.8.7 2.3.5.5 1.1.8 1.9.8.8 0 1.5-.3 2-.8s.7-1.3.7-2.3v-9h1.1zM52.1 44.2h-3.6v11.9h-1.1v-11.9h-3.6v-.9h8.2v.9zM62.5 52.4l.3 1.7h.1l.4-1.7 2.1-9.1h1l2.2 9.1.4 1.8h.1l.3-1.8 1.8-9.1h.8l-2.7 12.8h-1l-2.3-9.8-.2-1.2h-.1l-.2 1.2-2.3 9.8h-1l-2.7-12.8h1.1l1.9 9.1zM76.7 56.1h-1.1v-12.8h1.1v12.8zM88 44.2h-3.6v11.9h-1.1v-11.9h-3.6v-.9h8.3v.9zM99.2 56.1h-1v-5.9h-5.7v5.9h-1.1v-12.8h1.1v6h5.7v-6h1v12.8zM35.9 74.6c0-.7-.2-1.3-.6-1.7-.4-.4-1.1-.8-2.1-1.2-1.2-.4-2-.8-2.6-1.4s-1-1.3-1-2.3c0-1 .3-1.8 1-2.4s1.5-.9 2.6-.9 2 .4 2.7 1.1 1 1.6 1 2.7v.1h-1c0-.8-.2-1.5-.7-2.1s-1.1-.8-1.9-.8c-.8 0-1.4.2-1.9.7s-.7 1-.7 1.7c0 .6.2 1.2.6 1.6s1.2.8 2.2 1.1c1.1.4 2 .8 2.6 1.4s.9 1.4.9 2.4-.3 1.8-1 2.4-1.6.9-2.7.9-2-.3-2.8-1-1.2-1.6-1.1-2.8v-.1h1c0 1 .3 1.7.9 2.2s1.3.7 2.1.7 1.4-.2 1.9-.7c.3-.3.6-.9.6-1.6zM52.6 71.9v5.8h-1.1v-12.8h3.7c1.1 0 2 .3 2.6.9.6.6.9 1.5.9 2.6 0 .7-.2 1.3-.5 1.8s-.8.9-1.4 1.2c.7.2 1.1.6 1.4 1.1s.4 1.2.4 1.9v1.2c0 .4 0 .8.1 1.1.1.3.2.6.4.8v.2h-1.1c-.2-.2-.3-.5-.4-.9s-.1-.8-.1-1.2v-1.2c0-.8-.2-1.4-.6-1.9-.4-.5-.9-.7-1.6-.7h-2.7zm0-.9h2.5c.9 0 1.6-.2 2-.7s.6-1.1.6-1.9c0-.8-.2-1.5-.6-1.9s-1-.7-1.9-.7h-2.6v5.2zM42 72.4v5.3h-1v-12.8h3.8c1.1 0 2 .3 2.6 1s.9 1.6.9 2.7-.3 2-.9 2.7-1.5 1-2.6 1h-2.8zm0-.9h2.7c.8 0 1.4-.3 1.8-.8s.6-1.2.6-2-.2-1.5-.6-2-1-.8-1.8-.8h-2.7v5.6zM70.4 73.1c0 1.6-.4 2.7-1.1 3.6s-1.7 1.2-3 1.2c-1.2 0-2.2-.4-2.9-1.2-.7-.8-1.1-2-1.1-3.6v-3.6c0-1.6.4-2.7 1.1-3.6.7-.8 1.7-1.2 2.9-1.2 1.3 0 2.3.4 3 1.2s1.1 2 1.1 3.6v3.6zm-1-3.6c0-1.3-.3-2.2-.8-2.9s-1.3-1-2.2-1c-.9 0-1.7.3-2.2 1-.5.6-.8 1.6-.8 2.9v3.6c0 1.3.3 2.2.8 2.9.5.6 1.2 1 2.2 1 1 0 1.7-.3 2.2-1s.8-1.6.8-2.9v-3.6zM81.4 64.9v9c0 1.3-.3 2.3-1 3s-1.6 1-2.7 1-2-.3-2.7-1-1-1.7-1-3v-9h1v9c0 1 .2 1.8.7 2.3s1.1.8 1.9.8c.8 0 1.5-.3 2-.8s.7-1.3.7-2.3v-9h1.1zM92.6 65.8h-3.6v11.9h-1v-11.9h-3.6v-.9h8.2v.9z"/></g></svg>