<svg xmlns="http://www.w3.org/2000/svg" width="136.6" height="56.3" viewBox="0 0 136.6 56.3"><path clip-rule="evenodd" stroke="#9FBAA2" stroke-width="2" stroke-miterlimit="10" d="M1 1h134.6v54.3h-134.6v-54.3z" fill="none"/><g fill="#9FBAA2"><path d="M27.3 30.8c0 1.3-.3 2.3-1 2.9s-1.5 1-2.7 1c-1.2 0-2.1-.4-2.8-1.2s-1-2-1-3.6v-3.5c0-1.5.3-2.7 1-3.6s1.6-1.3 2.8-1.3c1.1 0 2 .3 2.7 1s1 1.6 1 2.9v.1h-1c0-1-.3-1.8-.7-2.2s-1.1-.7-1.9-.7c-.9 0-1.6.3-2.1 1s-.7 1.6-.7 2.9v3.6c0 1.3.2 2.2.7 2.9s1.2 1 2.1 1c.9 0 1.5-.2 1.9-.7.4-.5.7-1.2.7-2.3h1zM38.9 34.6h-1v-5.9h-5.7v5.9h-1.1v-12.8h1.1v6h5.7v-6h1v12.8zM49.1 31h-4.7l-1.1 3.6h-1.1l4.1-12.8h1l4 12.8h-1.1l-1.1-3.6zm-4.3-1h4.1l-2-6.6h-.1l-2 6.6zM62.4 34.6h-1.1l-5.7-10.7h-.1v10.7h-1.1v-12.8h1.1l5.7 10.7h.1v-10.7h1.1v12.8zM74.3 32.8c-.2.5-.7.9-1.3 1.3s-1.4.6-2.4.6c-1.3 0-2.3-.4-3.1-1.2s-1.2-2-1.2-3.5v-3.8c0-1.5.4-2.6 1.1-3.4s1.7-1.2 3-1.2c1.2 0 2.1.3 2.8.9s1 1.5 1 2.6v.1h-1c0-.9-.3-1.5-.8-2s-1.2-.7-2.1-.7c-.9 0-1.7.3-2.2.9s-.8 1.5-.8 2.7v3.9c0 1.2.3 2.2.9 2.8s1.4 1 2.3 1c.7 0 1.3-.1 1.7-.4s.7-.6.9-.9v-3.3h-2.7v-.9h3.7v4.5zM84.7 28.4h-5v5.3h5.8v.9h-6.8v-12.8h6.8v.9h-5.7v4.8h5v.9zM89.9 33.7h5.2v.9h-6.2v-12.8h1.1v11.9zM105.3 30c0 1.6-.4 2.7-1.1 3.6s-1.7 1.2-3 1.2c-1.2 0-2.2-.4-2.9-1.2s-1.1-2-1.1-3.6v-3.6c0-1.6.4-2.7 1.1-3.6s1.7-1.2 2.9-1.2c1.3 0 2.3.4 3 1.2s1.1 2 1.1 3.6v3.6zm-1-3.7c0-1.3-.3-2.2-.8-2.9s-1.3-1-2.2-1c-.9 0-1.7.3-2.2 1s-.8 1.6-.8 2.9v3.7c0 1.3.3 2.2.8 2.9s1.2 1 2.2 1c1 0 1.7-.3 2.2-1s.8-1.6.8-2.9v-3.7zM116.7 32.8c-.2.5-.7.9-1.3 1.3s-1.4.6-2.4.6c-1.3 0-2.3-.4-3.1-1.2s-1.2-2-1.2-3.5v-3.8c0-1.5.4-2.6 1.1-3.4s1.7-1.2 3-1.2c1.2 0 2.1.3 2.8.9s1 1.5 1 2.6v.1h-1c0-.9-.3-1.5-.8-2s-1.2-.7-2.1-.7c-.9 0-1.7.3-2.2.9s-.8 1.5-.8 2.7v3.9c0 1.2.3 2.2.9 2.8s1.4 1 2.3 1c.7 0 1.3-.1 1.7-.4s.7-.6.9-.9v-3.3h-2.5v-.9h3.7v4.5z"/></g></svg>