<svg xmlns="http://www.w3.org/2000/svg" width="120.3" height="120.3" viewBox="0 0 120.3 120.3"><path stroke="#1BAD9A" stroke-width="2" stroke-miterlimit="10" d="M101.7 101.7l-49.9 17.5-44.8-28.2-6-52.5 37.5-37.5 52.5 6 28.1 44.8-17.4 49.9z" fill="none"/><g fill="#1BAD9A"><path d="M37.7 51.2c0 1.6-.4 2.7-1.1 3.6s-1.7 1.2-3 1.2c-1.2 0-2.2-.4-2.9-1.2s-1.1-2-1.1-3.6v-3.6c0-1.6.4-2.7 1.1-3.6s1.7-1.2 2.9-1.2c1.3 0 2.3.4 3 1.2s1.1 2 1.1 3.6v3.6zm-1.1-3.6c0-1.3-.3-2.2-.8-2.9s-1.3-1-2.2-1c-.9 0-1.7.3-2.2 1s-.8 1.6-.8 2.9v3.6c0 1.3.3 2.2.8 2.9s1.2 1 2.2 1c1 0 1.7-.3 2.2-1s.8-1.6.8-2.9v-3.6zM41.5 55.8v-12.8h3.2c1.1 0 2 .3 2.6.8.6.6.9 1.4.9 2.5 0 .6-.2 1.2-.5 1.7s-.8.8-1.3 1c.7.1 1.2.5 1.6 1.1.4.6.6 1.3.6 2.1 0 1.1-.3 2-.9 2.6-.6.6-1.5.9-2.5.9h-3.7zm1-7.1h2.5c.7 0 1.2-.2 1.6-.6.4-.4.6-1 .6-1.8s-.2-1.4-.6-1.8c-.4-.4-1-.6-1.8-.6h-2.2v4.8zm0 .9v5.3h2.7c.7 0 1.3-.2 1.7-.7.4-.5.6-1.1.6-1.9 0-.8-.2-1.4-.6-1.9s-.9-.7-1.6-.7h-2.8zM56.9 43h1.1v9.2c0 1.2-.3 2.1-.9 2.8s-1.3 1-2.3 1c-1 0-1.8-.3-2.4-.9s-.9-1.5-.8-2.7h1c0 .9.2 1.6.6 2.1s.9.7 1.6.7c.6 0 1.1-.3 1.5-.8s.6-1.2.6-2.1v-9.3zM68.3 49.6h-5v5.3h5.7v.9h-6.8v-12.8h6.8v.9h-5.7v4.8h5v.9zM79.4 52.1c0 1.3-.3 2.3-1 2.9s-1.5 1-2.7 1c-1.2 0-2.1-.4-2.8-1.2s-1-2-1-3.6v-3.5c0-1.5.3-2.7 1-3.6s1.6-1.3 2.8-1.3c1.1 0 2 .3 2.7 1s1 1.6 1 2.9v.1h-1c0-1-.3-1.8-.7-2.2s-1.1-.7-1.9-.7c-.9 0-1.6.3-2.1 1s-.7 1.5-.7 2.7v3.6c0 1.3.2 2.2.7 2.9s1.2 1 2.1 1c.9 0 1.5-.2 1.9-.7.4-.5.7-1.2.7-2.3h1zM90.1 43.9h-3.6v11.9h-1.1v-11.9h-3.6v-.9h8.2v.9zM26.7 76.5h5.2v.9h-6.2v-12.8h1.1v11.9zM41 73.9h-4.7l-1.1 3.6h-1.1l4.1-12.8h1l4 12.8h-1.1l-1.1-3.6zm-4.4-1h4.1l-2-6.6h-.1l-2 6.6zM52.4 65.5h-3.6v11.9h-1.1v-11.9h-3.6v-.9h8.2v.9zM61.7 71.2h-5v5.3h5.8v.9h-6.8v-12.8h6.8v.9h-5.7v4.8h5v.9zM66.9 71.6v5.8h-1.1v-12.8h3.7c1.1 0 2 .3 2.6.9.6.6.9 1.5.9 2.6 0 .7-.2 1.3-.5 1.8s-.8.9-1.4 1.2c.7.2 1.1.6 1.4 1.1s.4 1.2.4 1.9v1.2c0 .4 0 .8.1 1.1.1.3.2.6.4.8v.2h-1.1c-.2-.2-.3-.5-.4-.9s.1-.8.1-1.2v-1.2c0-.8-.2-1.4-.6-1.9-.4-.5-.9-.7-1.6-.7h-2.9zm0-.9h2.5c.9 0 1.6-.2 2-.7s.6-1.1.6-1.9c0-.8-.2-1.5-.6-1.9s-1-.7-1.9-.7h-2.6v5.2zM83 73.9h-4.7l-1.1 3.6h-1.1l4.1-12.8h1l4 12.8h-1.1l-1.1-3.6zm-4.3-1h4.1l-2-6.6h-.1l-2 6.6zM89.5 76.5h5.2v.9h-6.2v-12.8h1.1v11.9z"/></g></svg>