<svg xmlns="http://www.w3.org/2000/svg" width="134.1" height="126" viewBox="0 0 134.1 126"><path clip-rule="evenodd" stroke="#7196BF" stroke-width="2" stroke-miterlimit="10" d="M67 1.4l65.6 61.6-65.6 61.6-65.5-61.6 65.5-61.6z" fill="none"/><g fill="#7196BF"><path d="M45.6 67.7c-.2.5-.7.9-1.3 1.3s-1.4.6-2.4.6c-1.3 0-2.3-.4-3.1-1.2s-1.2-2-1.2-3.5v-3.8c0-1.5.4-2.6 1.1-3.4s1.7-1.2 3-1.2c1.2 0 2.1.3 2.8.9s1 1.5 1 2.6v.1h-1c0-.9-.3-1.5-.8-2s-1.2-.7-2.1-.7c-.9 0-1.7.3-2.2.9s-.8 1.5-.8 2.7v3.8c0 1.2.3 2.2.9 2.8s1.4 1 2.3 1c.7 0 1.3-.1 1.7-.4s.7-.6.9-.9v-3.3h-2.7v-.9h3.7v4.6zM51.2 69.4h-1.1v-12.8h1.1v12.8zM62.5 57.5h-3.6v11.9h-1.1v-11.9h-3.6v-.9h8.2v.9zM73.6 69.4h-1v-5.9h-5.7v5.9h-1.1v-12.8h1.1v6h5.7v-6h1v12.8zM85.2 56.6v9c0 1.3-.3 2.3-1 3s-1.6 1-2.7 1-2-.3-2.7-1-1-1.7-1-3v-9h1v9c0 1 .2 1.8.7 2.3.5.5 1.1.8 1.9.8.8 0 1.5-.3 2-.8s.7-1.3.7-2.3v-9h1.1zM89.2 69.4v-12.8h3.2c1.1 0 2 .3 2.6.8.7.6 1 1.5 1 2.6 0 .6-.2 1.2-.5 1.7s-.8.8-1.3 1c.7.1 1.2.5 1.6 1.1.4.6.6 1.3.6 2.1 0 1.1-.3 2-.9 2.6-.6.6-1.5.9-2.5.9h-3.8zm1.1-7h2.5c.7 0 1.2-.2 1.6-.6.4-.4.6-1 .6-1.8s-.2-1.4-.6-1.8c-.4-.4-1-.6-1.8-.6h-2.2v4.8zm0 .8v5.3h2.7c.7 0 1.3-.2 1.7-.7.4-.5.6-1.1.6-1.9 0-.8-.2-1.4-.6-1.9s-.9-.7-1.6-.7h-2.8z"/></g></svg>