<svg xmlns="http://www.w3.org/2000/svg" width="146" height="93.1" viewBox="0 0 146 93.1"><path clip-rule="evenodd" stroke="#CCA82C" stroke-width="2" stroke-miterlimit="10" d="M73 1.2l71.2 45.4-71.2 45.3-71.1-45.4 71.1-45.3z" fill="none"/><g fill="#CCA82C"><path d="M53.6 52.9v-12.8h3.2c1.1 0 2 .3 2.6.8s.9 1.4.9 2.5c0 .6-.2 1.2-.5 1.7s-.8.8-1.3 1c.7.1 1.2.5 1.6 1.1s.6 1.3.6 2.1c0 1.1-.3 2-.9 2.6s-1.5.9-2.5.9h-3.7zm1.1-7h2.5c.7 0 1.2-.2 1.6-.6.4-.4.6-1 .6-1.8s-.2-1.4-.6-1.8c-.4-.4-1-.6-1.8-.6h-2.2v4.8zm0 .9v5.2h2.7c.7 0 1.3-.2 1.7-.7.4-.5.6-1.1.6-1.9 0-.8-.2-1.4-.6-1.9-.4-.5-.9-.7-1.6-.7h-2.8zM65.6 52h5.2v.9h-6.2v-12.8h1.1v11.9zM81 48.3c0 1.6-.4 2.7-1.1 3.6s-1.7 1.2-3 1.2c-1.2 0-2.2-.4-2.9-1.2-.7-.8-1.1-2-1.1-3.6v-3.6c0-1.6.4-2.7 1.1-3.6s1.7-1.2 2.9-1.2c1.3 0 2.3.4 3 1.2s1.1 2 1.1 3.6v3.6zm-1-3.6c0-1.3-.3-2.2-.8-2.9s-1.3-1-2.2-1c-.9 0-1.7.3-2.2 1s-.8 1.7-.8 2.9v3.6c0 1.3.3 2.2.8 2.9s1.2 1 2.2 1c1 0 1.7-.3 2.2-1s.8-1.6.8-2.9v-3.6zM92.4 51.2c-.2.5-.7.9-1.3 1.3s-1.4.6-2.4.6c-1.3 0-2.3-.4-3.1-1.2s-1.2-2-1.2-3.5v-3.8c0-1.5.4-2.6 1.1-3.4s1.7-1.2 3-1.2c1.2 0 2.1.3 2.8.9s1 1.5 1 2.6v.1h-1c0-.9-.3-1.5-.8-2s-1.2-.7-2.1-.7c-.9 0-1.7.3-2.2.9s-.8 1.5-.8 2.7v3.8c0 1.2.3 2.2.9 2.8s1.4 1 2.3 1c.7 0 1.3-.1 1.7-.4s.7-.6.9-.9v-3.3h-2.7v-.9h3.7v4.6z"/></g></svg>