<svg xmlns="http://www.w3.org/2000/svg" width="120" height="100" viewBox="0 0 120 100"><g fill="#80B668"><path d="M16.6 45.9h-1.1v-12.8h1.1v12.8zM29 45.9h-1l-5.7-10.7h-.1v10.7h-1.1v-12.8h1.1l5.7 10.7h.1v-10.7h1v12.8zM40.2 34h-3.6v11.9h-1.1v-11.9h-3.5v-.9h8.2v.9zM49.6 39.7h-5v5.3h5.8v.9h-6.8v-12.8h6.8v.9h-5.7v4.8h5v.9zM54.8 40.1v5.8h-1.1v-12.8h3.7c1.1 0 2 .3 2.6.9s.9 1.5.9 2.6c0 .7-.2 1.3-.5 1.8s-.8.9-1.4 1.2c.7.2 1.1.6 1.4 1.1.3.5.4 1.2.4 1.9v1.2c0 .4 0 .8.1 1.1s.2.6.4.8v.2h-1.1c-.1-.2-.2-.5-.2-.9-.1-.4-.1-.8-.1-1.2v-1.2c0-.8-.2-1.4-.6-1.9-.4-.5-.9-.7-1.6-.7h-2.9zm0-.9h2.5c.9 0 1.6-.2 2-.7s.6-1.1.6-1.9c0-.8-.2-1.5-.6-1.9s-1-.7-1.9-.7h-2.6v5.2zM71.3 39.9h-5.1v6h-1.1v-12.8h6.9v.9h-5.8v5h5.1v.9zM80.6 42.4h-4.7l-1.1 3.6h-1.1l4.1-12.8h1l4 12.8h-1.1l-1.1-3.6zm-4.4-1h4.1l-2-6.6h-.1l-2 6.6zM92.8 42.2c0 1.3-.3 2.3-1 2.9s-1.5 1-2.7 1c-1.2 0-2.1-.4-2.8-1.2s-1-2-1-3.6v-3.5c0-1.5.3-2.7 1-3.6s1.6-1.3 2.8-1.3c1.1 0 2 .3 2.7 1s1 1.6 1 2.9v.1h-1c0-1-.3-1.8-.7-2.2s-1.1-.7-1.9-.7c-.9 0-1.6.3-2.1 1s-.7 1.6-.7 2.9v3.6c0 1.3.2 2.2.7 2.9s1.2 1 2.1 1c.9 0 1.5-.2 1.9-.7.4-.5.7-1.2.7-2.3h1zM102.7 39.7h-5v5.3h5.8v.9h-6.8v-12.8h6.8v.9h-5.7v4.8h5v.9zM34.2 64.4c0-.7-.2-1.3-.6-1.7-.4-.4-1.1-.8-2.1-1.2-1.2-.4-2-.8-2.6-1.4s-.9-1.3-.9-2.3c0-1 .3-1.8 1-2.4s1.5-.9 2.6-.9 2 .4 2.7 1.1 1 1.6 1 2.7v.1h-1c0-.8-.2-1.5-.7-2.1s-1.1-.8-1.9-.8c-.8 0-1.4.2-1.9.7s-.7 1-.7 1.7c0 .6.2 1.2.6 1.6s1.2.8 2.2 1.1c1.1.4 2 .8 2.6 1.4s.9 1.4.9 2.4-.3 1.8-1 2.4-1.6.9-2.7.9-2-.3-2.8-1-1.2-1.6-1.1-2.8v-.1h1c0 1 .3 1.7.9 2.2s1.3.7 2.1.7 1.4-.2 1.9-.7c.3-.3.5-.9.5-1.6zM45.9 63.8c0 1.3-.3 2.3-1 2.9s-1.5 1-2.7 1c-1.2 0-2.1-.4-2.8-1.2s-1-2-1-3.6v-3.5c0-1.5.3-2.7 1-3.6s1.6-1.3 2.8-1.3c1.1 0 2 .3 2.7 1s1 1.6 1 2.9v.1h-1c0-1-.3-1.8-.7-2.2s-1.1-.7-1.9-.7c-.9 0-1.6.3-2.1 1s-.7 1.6-.7 2.9v3.6c0 1.3.2 2.2.7 2.9s1.2 1 2.1 1c.9 0 1.5-.2 1.9-.7s.7-1.2.7-2.3h1zM57.5 67.5h-1v-5.9h-5.7v5.9h-1.1v-12.8h1.1v6h5.7v-6h1v12.8zM69.4 62.9c0 1.6-.4 2.7-1.1 3.6s-1.7 1.2-3 1.2c-1.2 0-2.2-.4-2.9-1.2s-1.1-2-1.1-3.6v-3.6c0-1.6.4-2.7 1.1-3.6s1.7-1.2 2.9-1.2c1.3 0 2.3.4 3 1.2s1.1 2 1.1 3.6v3.6zm-1.1-3.6c0-1.3-.3-2.2-.8-2.9s-1.3-1-2.2-1c-.9 0-1.7.3-2.2 1s-.8 1.6-.8 2.9v3.6c0 1.3.3 2.2.8 2.9s1.2 1 2.2 1c1 0 1.7-.3 2.2-1s.8-1.6.8-2.9v-3.6zM80.7 62.9c0 1.6-.4 2.7-1.1 3.6s-1.7 1.2-3 1.2c-1.2 0-2.2-.4-2.9-1.2s-1.1-2-1.1-3.6v-3.6c0-1.6.4-2.7 1.1-3.6s1.7-1.2 2.9-1.2c1.3 0 2.3.4 3 1.2s1.1 2 1.1 3.6v3.6zm-1.1-3.6c0-1.3-.3-2.2-.8-2.9s-1.3-1-2.2-1c-.9 0-1.7.3-2.2 1s-.8 1.6-.8 2.9v3.6c0 1.3.3 2.2.8 2.9s1.2 1 2.2 1c1 0 1.7-.3 2.2-1s.8-1.6.8-2.9v-3.6zM85.5 66.6h5.2v.9h-6.2v-12.8h1.1v11.9z"/></g><path fill="#80B668" d="M118 2v96h-116v-96h116m2-2h-120v100h120v-100z"/></svg>