<svg xmlns="http://www.w3.org/2000/svg" width="141.3" height="93.6" viewBox="0 0 141.3 93.6"><path clip-rule="evenodd" stroke="#B9637B" stroke-width="2" stroke-miterlimit="10" d="M70.7 1c38.5 0 69.7 20.5 69.7 45.8s-31.2 45.8-69.7 45.8-69.7-20.5-69.7-45.8 31.2-45.8 69.7-45.8z" fill="none"/><g fill="#B9637B"><path d="M26.1 42.4v-12.8h3.2c1.1 0 2 .3 2.6.8.6.6.9 1.4.9 2.5 0 .6-.2 1.2-.5 1.7s-.8.8-1.3 1c.7.1 1.2.5 1.6 1.1.4.6.6 1.3.6 2.1 0 1.1-.3 2-.9 2.6-.6.6-1.5.9-2.5.9h-3.7zm1.1-7.1h2.5c.7 0 1.2-.2 1.6-.6.4-.4.6-1 .6-1.8s-.2-1.4-.6-1.8c-.4-.4-1-.6-1.8-.6h-2.2v4.8zm0 .9v5.3h2.7c.7 0 1.3-.2 1.7-.7.4-.5.6-1.1.6-1.9 0-.8-.2-1.4-.6-1.9s-.9-.7-1.6-.7h-2.8zM38.3 42.4h-1.1v-12.8h1.1v12.8zM42.8 42.4v-12.8h3.2c1.1 0 2 .3 2.6.8.6.6.9 1.4.9 2.5 0 .6-.2 1.2-.5 1.7s-.8.8-1.3 1c.7.1 1.2.5 1.6 1.1.4.6.6 1.3.6 2.1 0 1.1-.3 2-.9 2.6-.6.6-1.5.9-2.5.9h-3.7zm1-7.1h2.5c.7 0 1.2-.2 1.6-.6.4-.4.6-1 .6-1.8s-.2-1.4-.6-1.8c-.4-.4-1-.6-1.8-.6h-2.2v4.8zm0 .9v5.3h2.7c.7 0 1.3-.2 1.7-.7.4-.5.6-1.1.6-1.9 0-.8-.2-1.4-.6-1.9s-.9-.7-1.6-.7h-2.8zM54.7 41.5h5.2v.9h-6.2v-12.8h1.1v11.9zM64.4 42.4h-1.1v-12.8h1.1v12.8zM75.9 38.7c0 1.3-.3 2.3-1 2.9s-1.5 1-2.7 1c-1.2 0-2.1-.4-2.8-1.2s-1-2-1-3.6v-3.5c0-1.5.3-2.7 1-3.6s1.6-1.3 2.8-1.3c1.1 0 2 .3 2.7 1s1 1.6 1 2.9v.1h-1c0-1-.3-1.8-.7-2.2s-1.1-.7-1.9-.7c-.9 0-1.6.3-2.1 1s-.7 1.6-.7 2.9v3.6c0 1.3.2 2.2.7 2.9s1.2 1 2.1 1c.9 0 1.5-.2 1.9-.7.4-.5.7-1.2.7-2.3h1zM85.4 38.8h-4.7l-1.1 3.6h-1.1l4.1-12.8h1l4 12.8h-1.1l-1.1-3.6zm-4.4-.9h4.1l-2-6.6h-.1l-2 6.6zM91.8 41.5h5.2v.9h-6.2v-12.8h1.1v11.9zM101.3 41.5h5.2v.9h-6.2v-12.8h1.1v11.9zM110.9 36.4l3.1-6.8h1.2l-3.8 8.1v4.7h-1.1v-4.7l-3.8-8.1h1.2l3.2 6.8zM36.3 60.9c0-.7-.2-1.3-.6-1.7-.4-.4-1.1-.8-2.1-1.2-1.2-.4-2-.8-2.7-1.4s-.9-1.3-.9-2.3c0-1 .3-1.8 1-2.4s1.5-.9 2.6-.9 2 .4 2.7 1.1 1 1.6 1 2.7v.1h-1c0-.8-.2-1.5-.7-2.1s-1.1-.8-1.9-.8c-.8 0-1.4.2-1.9.7s-.7 1-.7 1.7c0 .6.2 1.2.6 1.6s1.2.8 2.2 1.1c1.1.4 2 .8 2.6 1.4s.9 1.4.9 2.4-.3 1.8-1 2.4-1.6.9-2.7.9-2-.3-2.8-1-1.2-1.6-1.1-2.8v-.1h1c0 1 .3 1.7.9 2.2s1.3.7 2.1.7 1.4-.2 1.9-.7c.4-.3.6-.9.6-1.6zM42 58.7v5.3h-1v-12.8h3.8c1.1 0 2 .3 2.6 1s.9 1.6.9 2.7-.3 2-.9 2.7-1.5 1-2.6 1h-2.8zm0-.9h2.7c.8 0 1.4-.3 1.8-.8s.6-1.2.6-2-.2-1.5-.6-2-1-.8-1.8-.8h-2.7v5.6zM58 57.8h-5v5.3h5.8v.9h-6.8v-12.8h6.8v.9h-5.8v4.8h5v.9zM67.9 60.4h-4.7l-1.1 3.6h-1.1l4.1-12.8h1l3.9 12.8h-1.1l-1-3.6zm-4.4-.9h4.1l-2-6.6h-.1l-2 6.6zM75.6 58h-1.4v6h-1.1v-12.8h1.1v5.9h1.3l4.1-5.9h1.2l-4.4 6.3 4.7 6.5h-1.3l-4.2-6zM85.6 64h-1.1v-12.8h1.1v12.8zM97.9 64h-1.1l-5.7-10.7h-.1v10.7h-1.1v-12.8h1.1l5.7 10.7h.1v-10.7h1.1v12.8zM109.9 62.3c-.2.5-.7.9-1.3 1.3s-1.4.6-2.4.6c-1.3 0-2.3-.4-3.1-1.2s-1.2-2-1.2-3.5v-3.8c0-1.5.4-2.6 1.1-3.4s1.7-1.2 3-1.2c1.2 0 2.1.3 2.8.9s1 1.5 1 2.6v.1h-1c0-.9-.3-1.5-.8-2s-1.2-.7-2.1-.7c-.9 0-1.7.3-2.2.9s-.8 1.5-.8 2.7v3.8c0 1.2.3 2.2.9 2.8s1.4 1 2.3 1c.7 0 1.3-.1 1.7-.4s.7-.6.9-.9v-3.3h-2.7v-.9h3.7v4.6z"/></g></svg>