<svg xmlns="http://www.w3.org/2000/svg" width="94.3" height="108.9" viewBox="0 0 94.3 108.9"><path stroke="#BB8BB7" stroke-width="2" stroke-miterlimit="10" d="M92.3 54.5l-91.3 52.7v-105.5l91.3 52.8z" fill="none"/><g fill="#BB8BB7"><path d="M16.7 55.1v5.8h-1.1v-12.8h3.7c1.1 0 2 .3 2.6.9s.9 1.5.9 2.6c0 .7-.2 1.3-.5 1.8s-.8.9-1.4 1.2c.7.2 1.1.6 1.4 1.1.3.5.4 1.2.4 1.9v1.2c0 .4 0 .8.1 1.1s.2.6.4.8v.2h-1.1c-.2-.2-.3-.5-.4-.9-.1-.4-.1-.8-.1-1.2v-1.2c0-.8-.2-1.4-.6-1.9-.4-.5-.9-.7-1.6-.7h-2.7zm0-.9h2.5c.9 0 1.6-.2 2-.7s.6-1.1.6-1.9c0-.8-.2-1.5-.6-1.9s-1-.7-1.9-.7h-2.6v5.2zM27.1 60.9v-12.8h3.1c1.3 0 2.4.5 3.3 1.6s1.3 2.4 1.3 4v1.7c0 1.6-.4 3-1.3 4s-1.9 1.6-3.3 1.6h-3.1zm1-11.9v11h2.1c1 0 1.9-.4 2.5-1.3.6-.9 1-2 1-3.3v-1.7c0-1.3-.3-2.5-1-3.3s-1.4-1.4-2.5-1.4h-2.1zM39.7 60.9h-1.1v-12.8h1.1v12.8zM51.7 56.3c0 1.6-.4 2.7-1.1 3.6s-1.7 1.2-3 1.2c-1.2 0-2.2-.4-2.9-1.2s-1.1-2-1.1-3.6v-3.6c0-1.6.4-2.7 1.1-3.6s1.7-1.2 2.9-1.2c1.3 0 2.3.4 3 1.2s1.1 2 1.1 3.6v3.6zm-1-3.6c0-1.3-.3-2.2-.8-2.9s-1.3-1-2.2-1c-.9 0-1.7.3-2.2 1s-.8 1.6-.8 2.9v3.6c0 1.3.3 2.2.8 2.9s1.2 1 2.2 1c1 0 1.7-.3 2.2-1s.8-1.6.8-2.9v-3.6z"/></g></svg>