<?xml version="1.0" encoding="utf-8"?>
<!-- Generator: Adobe Illustrator 17.1.0, SVG Export Plug-In . SVG Version: 6.00 Build 0)  -->
<!DOCTYPE svg PUBLIC "-//W3C//DTD SVG 1.1//EN" "http://www.w3.org/Graphics/SVG/1.1/DTD/svg11.dtd">
<svg version="1.1" id="Layer_1" xmlns="http://www.w3.org/2000/svg" xmlns:xlink="http://www.w3.org/1999/xlink" x="0px" y="0px"
	 width="10.7px" height="24px" viewBox="-24 33.3 10.7 24" enable-background="new -24 33.3 10.7 24" xml:space="preserve">
<path id="Instapaper" fill="#9AB4B7" d="M-13.4,56.6c-1.5-0.1-2.4-0.3-2.9-0.7c-0.4-0.3-0.7-1.2-0.7-2.6V37.2c0-1.3,0.2-2.2,0.7-2.6
	c0.4-0.4,1.4-0.6,2.9-0.7v-0.7H-24V34c1.5,0.1,2.4,0.3,2.9,0.7c0.4,0.4,0.7,1.2,0.7,2.6v16.1c0,1.4-0.2,2.3-0.7,2.6
	c-0.4,0.3-1.4,0.6-2.9,0.7v0.7h10.7V56.6z"/>
</svg>
