<?xml version="1.0" encoding="utf-8"?>
<!-- Generator: Adobe Illustrator 17.1.0, SVG Export Plug-In . SVG Version: 6.00 Build 0)  -->
<!DOCTYPE svg PUBLIC "-//W3C//DTD SVG 1.1//EN" "http://www.w3.org/Graphics/SVG/1.1/DTD/svg11.dtd">
<svg version="1.1" id="Layer_1" xmlns="http://www.w3.org/2000/svg" xmlns:xlink="http://www.w3.org/1999/xlink" x="0px" y="0px"
	 width="24px" height="24px" viewBox="29 22 24 24" enable-background="new 29 22 24 24" xml:space="preserve">
<g>
	<path fill="#9AB4B7" d="M52.5,46H49c-0.3,0-0.5-0.2-0.5-0.5c0-10.5-8.5-19-19-19c-0.3,0-0.5-0.2-0.5-0.5v-3.5
		c0-0.3,0.2-0.5,0.5-0.5C42.5,22,53,32.5,53,45.5C53,45.8,52.8,46,52.5,46z M45,46h-3.5c-0.3,0-0.5-0.2-0.5-0.5
		C41,39.1,35.9,34,29.5,34c-0.3,0-0.5-0.2-0.5-0.5V30c0-0.3,0.2-0.5,0.5-0.5c8.8,0,16,7.2,16,16C45.5,45.8,45.3,46,45,46z M32.8,46
		c-2.1,0-3.8-1.7-3.8-3.8c0-2.1,1.7-3.8,3.8-3.8c2.1,0,3.8,1.7,3.8,3.8C36.5,44.3,34.8,46,32.8,46z"/>
</g>
</svg>
