<?xml version="1.0" encoding="utf-8"?>
<!-- Generator: Adobe Illustrator 17.1.0, SVG Export Plug-In . SVG Version: 6.00 Build 0)  -->
<!DOCTYPE svg PUBLIC "-//W3C//DTD SVG 1.1//EN" "http://www.w3.org/Graphics/SVG/1.1/DTD/svg11.dtd">
<svg version="1.1" xmlns="http://www.w3.org/2000/svg" xmlns:xlink="http://www.w3.org/1999/xlink" x="0px" y="0px" width="121px"
	 height="121px" viewBox="0 0 121 121" enable-background="new 0 0 121 121" xml:space="preserve">
<g id="shapes">
	<path fill-rule="evenodd" clip-rule="evenodd" fill="none" stroke="#D26936" stroke-width="2" stroke-miterlimit="10" d="M60.5,1
		C93.3,1,120,27.6,120,60.5S93.3,120,60.5,120S1,93.3,1,60.5S27.6,1,60.5,1z"/>
</g>
<g id="words">
	<g>
		<path fill="#D26936" d="M29.8,51.5c0,1.6-0.4,2.7-1.1,3.6s-1.7,1.2-3,1.2c-1.2,0-2.2-0.4-2.9-1.2s-1.1-2-1.1-3.6v-3.6
			c0-1.6,0.4-2.7,1.1-3.6s1.7-1.2,2.9-1.2c1.3,0,2.3,0.4,3,1.2s1.1,2,1.1,3.6V51.5z M28.8,47.9c0-1.3-0.3-2.2-0.8-2.9s-1.3-1-2.2-1
			c-0.9,0-1.7,0.3-2.2,1s-0.8,1.6-0.8,2.9v3.6c0,1.3,0.3,2.2,0.8,2.9s1.2,1,2.2,1c1,0,1.7-0.3,2.2-1s0.8-1.6,0.8-2.9V47.9z"/>
		<path fill="#D26936" d="M40.9,43.3v9c0,1.3-0.3,2.3-1,3s-1.6,1-2.7,1c-1.1,0-2-0.3-2.7-1s-1-1.7-1-3v-9h1v9c0,1,0.2,1.8,0.7,2.3
			c0.5,0.5,1.1,0.8,1.9,0.8c0.8,0,1.5-0.3,2-0.8c0.5-0.5,0.7-1.3,0.7-2.3v-9H40.9z"/>
		<path fill="#D26936" d="M52.1,44.2h-3.6v11.9h-1.1V44.2h-3.6v-0.9h8.2V44.2z"/>
		<path fill="#D26936" d="M62.5,52.4l0.3,1.7l0.1,0l0.4-1.7l2.1-9.1h1l2.2,9.1l0.4,1.8h0.1l0.3-1.8l1.8-9.1H72l-2.7,12.8h-1
			l-2.3-9.8l-0.2-1.2h-0.1l-0.2,1.2l-2.3,9.8h-1l-2.7-12.8h1.1L62.5,52.4z"/>
		<path fill="#D26936" d="M76.7,56.1h-1.1V43.3h1.1V56.1z"/>
		<path fill="#D26936" d="M88,44.2h-3.6v11.9h-1.1V44.2h-3.6v-0.9H88V44.2z"/>
		<path fill="#D26936" d="M99.2,56.1h-1v-5.9h-5.7v5.9h-1.1V43.3h1.1v6h5.7v-6h1V56.1z"/>
		<path fill="#D26936" d="M35.9,74.6c0-0.7-0.2-1.3-0.6-1.7c-0.4-0.4-1.1-0.8-2.1-1.2c-1.2-0.4-2-0.8-2.6-1.4S29.6,69,29.6,68
			c0-1,0.3-1.8,1-2.4s1.5-0.9,2.6-0.9c1.1,0,2,0.4,2.7,1.1s1,1.6,1,2.7l0,0.1h-1c0-0.8-0.2-1.5-0.7-2.1s-1.1-0.8-1.9-0.8
			c-0.8,0-1.4,0.2-1.9,0.7s-0.7,1-0.7,1.7c0,0.6,0.2,1.2,0.6,1.6s1.2,0.8,2.2,1.1c1.1,0.4,2,0.8,2.6,1.4s0.9,1.4,0.9,2.4
			c0,1-0.3,1.8-1,2.4s-1.6,0.9-2.7,0.9c-1.1,0-2-0.3-2.8-1s-1.2-1.6-1.1-2.8l0-0.1h1c0,1,0.3,1.7,0.9,2.2s1.3,0.7,2.1,0.7
			c0.8,0,1.4-0.2,1.9-0.7C35.6,75.9,35.9,75.3,35.9,74.6z"/>
		<path fill="#D26936" d="M52.6,71.9v5.8h-1.1V64.9h3.7c1.1,0,2,0.3,2.6,0.9c0.6,0.6,0.9,1.5,0.9,2.6c0,0.7-0.2,1.3-0.5,1.8
			c-0.3,0.5-0.8,0.9-1.4,1.2c0.7,0.2,1.1,0.6,1.4,1.1s0.4,1.2,0.4,1.9v1.2c0,0.4,0,0.8,0.1,1.1c0.1,0.3,0.2,0.6,0.4,0.8v0.2h-1.1
			c-0.2-0.2-0.3-0.5-0.4-0.9s-0.1-0.8-0.1-1.2v-1.2c0-0.8-0.2-1.4-0.6-1.9c-0.4-0.5-0.9-0.7-1.6-0.7H52.6z M52.6,71h2.5
			c0.9,0,1.6-0.2,2-0.7s0.6-1.1,0.6-1.9c0-0.8-0.2-1.5-0.6-1.9s-1-0.7-1.9-0.7h-2.6V71z"/>
		<path fill="#D26936" d="M42,72.4v5.3H41V64.9h3.8c1.1,0,2,0.3,2.6,1s0.9,1.6,0.9,2.7c0,1.1-0.3,2-0.9,2.7s-1.5,1-2.6,1H42z
			 M42,71.5h2.7c0.8,0,1.4-0.3,1.8-0.8s0.6-1.2,0.6-2c0-0.8-0.2-1.5-0.6-2s-1-0.8-1.8-0.8H42V71.5z"/>
		<path fill="#D26936" d="M70.4,73.1c0,1.6-0.4,2.7-1.1,3.6s-1.7,1.2-3,1.2c-1.2,0-2.2-0.4-2.9-1.2c-0.7-0.8-1.1-2-1.1-3.6v-3.6
			c0-1.6,0.4-2.7,1.1-3.6c0.7-0.8,1.7-1.2,2.9-1.2c1.3,0,2.3,0.4,3,1.2s1.1,2,1.1,3.6V73.1z M69.4,69.5c0-1.3-0.3-2.2-0.8-2.9
			s-1.3-1-2.2-1c-0.9,0-1.7,0.3-2.2,1c-0.5,0.6-0.8,1.6-0.8,2.9v3.6c0,1.3,0.3,2.2,0.8,2.9c0.5,0.6,1.2,1,2.2,1c1,0,1.7-0.3,2.2-1
			s0.8-1.6,0.8-2.9V69.5z"/>
		<path fill="#D26936" d="M81.4,64.9v9c0,1.3-0.3,2.3-1,3s-1.6,1-2.7,1c-1.1,0-2-0.3-2.7-1s-1-1.7-1-3v-9h1v9c0,1,0.2,1.8,0.7,2.3
			s1.1,0.8,1.9,0.8c0.8,0,1.5-0.3,2-0.8s0.7-1.3,0.7-2.3v-9H81.4z"/>
		<path fill="#D26936" d="M92.6,65.8H89v11.9H88V65.8h-3.6v-0.9h8.2V65.8z"/>
	</g>
</g>
<g id="Layer_3">
</g>
</svg>
