<?xml version="1.0" encoding="utf-8"?>
<!-- Generator: Adobe Illustrator 17.1.0, SVG Export Plug-In . SVG Version: 6.00 Build 0)  -->
<!DOCTYPE svg PUBLIC "-//W3C//DTD SVG 1.1//EN" "http://www.w3.org/Graphics/SVG/1.1/DTD/svg11.dtd">
<svg version="1.1" xmlns="http://www.w3.org/2000/svg" xmlns:xlink="http://www.w3.org/1999/xlink" x="0px" y="0px" width="141.3px"
	 height="93.6px" viewBox="0 0 141.3 93.6" enable-background="new 0 0 141.3 93.6" xml:space="preserve">
<g id="shapes">
	<path fill-rule="evenodd" clip-rule="evenodd" fill="none" stroke="#B9637B" stroke-width="2" stroke-miterlimit="10" d="M70.7,1
		c38.5,0,69.7,20.5,69.7,45.8s-31.2,45.8-69.7,45.8S1,72.1,1,46.8S32.2,1,70.7,1z"/>
</g>
<g id="words">
	<g>
		<path fill="#B9637B" d="M26.1,42.4V29.6h3.2c1.1,0,2,0.3,2.6,0.8c0.6,0.6,0.9,1.4,0.9,2.5c0,0.6-0.2,1.2-0.5,1.7
			c-0.3,0.5-0.8,0.8-1.3,1c0.7,0.1,1.2,0.5,1.6,1.1c0.4,0.6,0.6,1.3,0.6,2.1c0,1.1-0.3,2-0.9,2.6c-0.6,0.6-1.5,0.9-2.5,0.9H26.1z
			 M27.2,35.3h2.5c0.7,0,1.2-0.2,1.6-0.6c0.4-0.4,0.6-1,0.6-1.8c0-0.8-0.2-1.4-0.6-1.8c-0.4-0.4-1-0.6-1.8-0.6h-2.2V35.3z
			 M27.2,36.2v5.3h2.7c0.7,0,1.3-0.2,1.7-0.7c0.4-0.5,0.6-1.1,0.6-1.9c0-0.8-0.2-1.4-0.6-1.9s-0.9-0.7-1.6-0.7H27.2z"/>
		<path fill="#B9637B" d="M38.3,42.4h-1.1V29.6h1.1V42.4z"/>
		<path fill="#B9637B" d="M42.8,42.4V29.6H46c1.1,0,2,0.3,2.6,0.8c0.6,0.6,0.9,1.4,0.9,2.5c0,0.6-0.2,1.2-0.5,1.7
			c-0.3,0.5-0.8,0.8-1.3,1c0.7,0.1,1.2,0.5,1.6,1.1c0.4,0.6,0.6,1.3,0.6,2.1c0,1.1-0.3,2-0.9,2.6c-0.6,0.6-1.5,0.9-2.5,0.9H42.8z
			 M43.8,35.3h2.5c0.7,0,1.2-0.2,1.6-0.6c0.4-0.4,0.6-1,0.6-1.8c0-0.8-0.2-1.4-0.6-1.8c-0.4-0.4-1-0.6-1.8-0.6h-2.2V35.3z
			 M43.8,36.2v5.3h2.7c0.7,0,1.3-0.2,1.7-0.7c0.4-0.5,0.6-1.1,0.6-1.9c0-0.8-0.2-1.4-0.6-1.9s-0.9-0.7-1.6-0.7H43.8z"/>
		<path fill="#B9637B" d="M54.7,41.5h5.2v0.9h-6.2V29.6h1.1V41.5z"/>
		<path fill="#B9637B" d="M64.4,42.4h-1.1V29.6h1.1V42.4z"/>
		<path fill="#B9637B" d="M75.9,38.7L75.9,38.7c0,1.3-0.3,2.3-1,2.9s-1.5,1-2.7,1c-1.2,0-2.1-0.4-2.8-1.2s-1-2-1-3.6v-3.5
			c0-1.5,0.3-2.7,1-3.6s1.6-1.3,2.8-1.3c1.1,0,2,0.3,2.7,1s1,1.6,1,2.9l0,0.1h-1c0-1-0.3-1.8-0.7-2.2s-1.1-0.7-1.9-0.7
			c-0.9,0-1.6,0.3-2.1,1c-0.5,0.7-0.7,1.6-0.7,2.9v3.6c0,1.3,0.2,2.2,0.7,2.9s1.2,1,2.1,1c0.9,0,1.5-0.2,1.9-0.7
			c0.4-0.5,0.7-1.2,0.7-2.3H75.9z"/>
		<path fill="#B9637B" d="M85.4,38.8h-4.7l-1.1,3.6h-1.1l4.1-12.8h1l4,12.8h-1.1L85.4,38.8z M81,37.9h4.1l-2-6.6H83L81,37.9z"/>
		<path fill="#B9637B" d="M91.8,41.5H97v0.9h-6.2V29.6h1.1V41.5z"/>
		<path fill="#B9637B" d="M101.3,41.5h5.2v0.9h-6.2V29.6h1.1V41.5z"/>
		<path fill="#B9637B" d="M110.9,36.4L110.9,36.4l3.1-6.8h1.2l-3.8,8.1v4.7h-1.1v-4.7l-3.8-8.1h1.2L110.9,36.4z"/>
		<path fill="#B9637B" d="M36.3,60.9c0-0.7-0.2-1.3-0.6-1.7c-0.4-0.4-1.1-0.8-2.1-1.2c-1.2-0.4-2-0.8-2.7-1.4S30,55.3,30,54.3
			c0-1,0.3-1.8,1-2.4s1.5-0.9,2.6-0.9c1.1,0,2,0.4,2.7,1.1s1,1.6,1,2.7l0,0.1h-1c0-0.8-0.2-1.5-0.7-2.1s-1.1-0.8-1.9-0.8
			c-0.8,0-1.4,0.2-1.9,0.7s-0.7,1-0.7,1.7c0,0.6,0.2,1.2,0.6,1.6s1.2,0.8,2.2,1.1c1.1,0.4,2,0.8,2.6,1.4s0.9,1.4,0.9,2.4
			c0,1-0.3,1.8-1,2.4s-1.6,0.9-2.7,0.9c-1.1,0-2-0.3-2.8-1s-1.2-1.6-1.1-2.8l0-0.1h1c0,1,0.3,1.7,0.9,2.2s1.3,0.7,2.1,0.7
			c0.8,0,1.4-0.2,1.9-0.7C36.1,62.2,36.3,61.6,36.3,60.9z"/>
		<path fill="#B9637B" d="M42,58.7V64H41V51.2h3.8c1.1,0,2,0.3,2.6,1s0.9,1.6,0.9,2.7c0,1.1-0.3,2-0.9,2.7s-1.5,1-2.6,1H42z
			 M42,57.8h2.7c0.8,0,1.4-0.3,1.8-0.8s0.6-1.2,0.6-2c0-0.8-0.2-1.5-0.6-2s-1-0.8-1.8-0.8H42V57.8z"/>
		<path fill="#B9637B" d="M58,57.8h-5v5.3h5.8V64h-6.8V51.2h6.8v0.9H53v4.8h5V57.8z"/>
		<path fill="#B9637B" d="M67.9,60.4h-4.7L62.1,64H61l4.1-12.8h1L70,64h-1.1L67.9,60.4z M63.5,59.5h4.1l-2-6.6h-0.1L63.5,59.5z"/>
		<path fill="#B9637B" d="M75.6,58h-1.4v6h-1.1V51.2h1.1v5.9h1.3l4.1-5.9h1.2l-4.4,6.3l4.7,6.5h-1.3L75.6,58z"/>
		<path fill="#B9637B" d="M85.6,64h-1.1V51.2h1.1V64z"/>
		<path fill="#B9637B" d="M97.9,64h-1.1l-5.7-10.7l-0.1,0V64h-1.1V51.2h1.1l5.7,10.7l0.1,0V51.2h1.1V64z"/>
		<path fill="#B9637B" d="M109.9,62.3c-0.2,0.5-0.7,0.9-1.3,1.3s-1.4,0.6-2.4,0.6c-1.3,0-2.3-0.4-3.1-1.2s-1.2-2-1.2-3.5v-3.8
			c0-1.5,0.4-2.6,1.1-3.4s1.7-1.2,3-1.2c1.2,0,2.1,0.3,2.8,0.9s1,1.5,1,2.6l0,0.1h-1c0-0.9-0.3-1.5-0.8-2s-1.2-0.7-2.1-0.7
			c-0.9,0-1.7,0.3-2.2,0.9s-0.8,1.5-0.8,2.7v3.8c0,1.2,0.3,2.2,0.9,2.8s1.4,1,2.3,1c0.7,0,1.3-0.1,1.7-0.4s0.7-0.6,0.9-0.9v-3.3
			h-2.7v-0.9h3.7V62.3z"/>
	</g>
</g>
<g id="Layer_3">
</g>
</svg>
