<?xml version="1.0" encoding="utf-8"?>
<!-- Generator: Adobe Illustrator 17.1.0, SVG Export Plug-In . SVG Version: 6.00 Build 0)  -->
<!DOCTYPE svg PUBLIC "-//W3C//DTD SVG 1.1//EN" "http://www.w3.org/Graphics/SVG/1.1/DTD/svg11.dtd">
<svg version="1.1" xmlns="http://www.w3.org/2000/svg" xmlns:xlink="http://www.w3.org/1999/xlink" x="0px" y="0px" width="143.4px"
	 height="63.7px" viewBox="0 0 143.4 63.7" enable-background="new 0 0 143.4 63.7" xml:space="preserve">
<g id="shapes">
	<path fill-rule="evenodd" clip-rule="evenodd" fill="none" stroke="#2DA4B6" stroke-width="2" stroke-miterlimit="10" d="M32.2,1
		h109.5l-30.6,61.7H1.6L32.2,1z"/>
</g>
<g id="words">
	<g>
		<path fill="#2DA4B6" d="M44.5,26.4h-3.6v11.9h-1.1V26.4h-3.6v-0.9h8.2V26.4z"/>
		<path fill="#2DA4B6" d="M49.8,34.6l0.3,1.7l0.1,0l0.4-1.7l2.1-9.1h1l2.2,9.1l0.4,1.8h0.1l0.3-1.8l1.8-9.1h1.1l-2.7,12.8h-1
			l-2.3-9.8l-0.2-1.2h-0.1l-0.2,1.2l-2.3,9.8h-1l-2.7-12.8H48L49.8,34.6z"/>
		<path fill="#2DA4B6" d="M64,38.3h-1.1V25.5H64V38.3z"/>
		<path fill="#2DA4B6" d="M75.4,26.4h-3.6v11.9h-1.1V26.4h-3.6v-0.9h8.2V26.4z"/>
		<path fill="#2DA4B6" d="M85.9,26.4h-3.6v11.9h-1.1V26.4h-3.6v-0.9h8.2V26.4z"/>
		<path fill="#2DA4B6" d="M95.3,32.1h-5v5.3H96v0.9h-6.8V25.5h6.8v0.9h-5.7v4.8h5V32.1z"/>
		<path fill="#2DA4B6" d="M100.4,32.5v5.8h-1.1V25.5h3.7c1.1,0,2,0.3,2.6,0.9s0.9,1.5,0.9,2.6c0,0.7-0.2,1.3-0.5,1.8
			s-0.8,0.9-1.4,1.2c0.7,0.2,1.1,0.6,1.4,1.1c0.3,0.5,0.4,1.2,0.4,1.9v1.2c0,0.4,0,0.8,0.1,1.1s0.2,0.6,0.4,0.8v0.2H106
			c-0.2-0.2-0.3-0.5-0.4-0.9c-0.1-0.4-0.1-0.8-0.1-1.2V35c0-0.8-0.2-1.4-0.6-1.9c-0.4-0.5-0.9-0.7-1.6-0.7H100.4z M100.4,31.6h2.5
			c0.9,0,1.6-0.2,2-0.7s0.6-1.1,0.6-1.9c0-0.8-0.2-1.5-0.6-1.9s-1-0.7-1.9-0.7h-2.6V31.6z"/>
	</g>
</g>
<g id="Layer_3">
</g>
</svg>
