<?xml version="1.0" encoding="utf-8"?>
<!-- Generator: Adobe Illustrator 17.1.0, SVG Export Plug-In . SVG Version: 6.00 Build 0)  -->
<!DOCTYPE svg PUBLIC "-//W3C//DTD SVG 1.1//EN" "http://www.w3.org/Graphics/SVG/1.1/DTD/svg11.dtd">
<svg version="1.1" xmlns="http://www.w3.org/2000/svg" xmlns:xlink="http://www.w3.org/1999/xlink" x="0px" y="0px" width="136.6px"
	 height="56.3px" viewBox="0 0 136.6 56.3" enable-background="new 0 0 136.6 56.3" xml:space="preserve">
<g id="shapes">
	<path fill-rule="evenodd" clip-rule="evenodd" fill="none" stroke="#9FBAA2" stroke-width="2" stroke-miterlimit="10" d="M1,1
		h134.6v54.3H1V1z"/>
</g>
<g id="words">
	<g>
		<path fill="#9FBAA2" d="M27.3,30.8L27.3,30.8c0,1.3-0.3,2.3-1,2.9s-1.5,1-2.7,1c-1.2,0-2.1-0.4-2.8-1.2s-1-2-1-3.6v-3.5
			c0-1.5,0.3-2.7,1-3.6s1.6-1.3,2.8-1.3c1.1,0,2,0.3,2.7,1s1,1.6,1,2.9l0,0.1h-1c0-1-0.3-1.8-0.7-2.2s-1.1-0.7-1.9-0.7
			c-0.9,0-1.6,0.3-2.1,1s-0.7,1.6-0.7,2.9v3.6c0,1.3,0.2,2.2,0.7,2.9s1.2,1,2.1,1c0.9,0,1.5-0.2,1.9-0.7c0.4-0.5,0.7-1.2,0.7-2.3
			H27.3z"/>
		<path fill="#9FBAA2" d="M38.9,34.6h-1v-5.9h-5.7v5.9h-1.1V21.8h1.1v6h5.7v-6h1V34.6z"/>
		<path fill="#9FBAA2" d="M49.1,31h-4.7l-1.1,3.6h-1.1l4.1-12.8h1l4,12.8h-1.1L49.1,31z M44.8,30h4.1l-2-6.6h-0.1L44.8,30z"/>
		<path fill="#9FBAA2" d="M62.4,34.6h-1.1l-5.7-10.7l-0.1,0v10.7h-1.1V21.8h1.1l5.7,10.7l0.1,0V21.8h1.1V34.6z"/>
		<path fill="#9FBAA2" d="M74.3,32.8c-0.2,0.5-0.7,0.9-1.3,1.3s-1.4,0.6-2.4,0.6c-1.3,0-2.3-0.4-3.1-1.2s-1.2-2-1.2-3.5v-3.8
			c0-1.5,0.4-2.6,1.1-3.4s1.7-1.2,3-1.2c1.2,0,2.1,0.3,2.8,0.9s1,1.5,1,2.6l0,0.1h-1c0-0.9-0.3-1.5-0.8-2s-1.2-0.7-2.1-0.7
			c-0.9,0-1.7,0.3-2.2,0.9s-0.8,1.5-0.8,2.7V30c0,1.2,0.3,2.2,0.9,2.8s1.4,1,2.3,1c0.7,0,1.3-0.1,1.7-0.4s0.7-0.6,0.9-0.9v-3.3h-2.7
			v-0.9h3.7V32.8z"/>
		<path fill="#9FBAA2" d="M84.7,28.4h-5v5.3h5.8v0.9h-6.8V21.8h6.8v0.9h-5.7v4.8h5V28.4z"/>
		<path fill="#9FBAA2" d="M89.9,33.7h5.2v0.9h-6.2V21.8h1.1V33.7z"/>
		<path fill="#9FBAA2" d="M105.3,30c0,1.6-0.4,2.7-1.1,3.6s-1.7,1.2-3,1.2c-1.2,0-2.2-0.4-2.9-1.2s-1.1-2-1.1-3.6v-3.6
			c0-1.6,0.4-2.7,1.1-3.6s1.7-1.2,2.9-1.2c1.3,0,2.3,0.4,3,1.2s1.1,2,1.1,3.6V30z M104.3,26.3c0-1.3-0.3-2.2-0.8-2.9s-1.3-1-2.2-1
			c-0.9,0-1.7,0.3-2.2,1s-0.8,1.6-0.8,2.9V30c0,1.3,0.3,2.2,0.8,2.9s1.2,1,2.2,1c1,0,1.7-0.3,2.2-1s0.8-1.6,0.8-2.9V26.3z"/>
		<path fill="#9FBAA2" d="M116.7,32.8c-0.2,0.5-0.7,0.9-1.3,1.3s-1.4,0.6-2.4,0.6c-1.3,0-2.3-0.4-3.1-1.2s-1.2-2-1.2-3.5v-3.8
			c0-1.5,0.4-2.6,1.1-3.4s1.7-1.2,3-1.2c1.2,0,2.1,0.3,2.8,0.9s1,1.5,1,2.6l0,0.1h-1c0-0.9-0.3-1.5-0.8-2s-1.2-0.7-2.1-0.7
			c-0.9,0-1.7,0.3-2.2,0.9s-0.8,1.5-0.8,2.7V30c0,1.2,0.3,2.2,0.9,2.8s1.4,1,2.3,1c0.7,0,1.3-0.1,1.7-0.4s0.7-0.6,0.9-0.9v-3.3H113
			v-0.9h3.7V32.8z"/>
	</g>
</g>
<g id="Layer_3">
</g>
</svg>
