<?xml version="1.0" encoding="utf-8"?>
<!-- Generator: Adobe Illustrator 17.1.0, SVG Export Plug-In . SVG Version: 6.00 Build 0)  -->
<!DOCTYPE svg PUBLIC "-//W3C//DTD SVG 1.1//EN" "http://www.w3.org/Graphics/SVG/1.1/DTD/svg11.dtd">
<svg version="1.1" xmlns="http://www.w3.org/2000/svg" xmlns:xlink="http://www.w3.org/1999/xlink" x="0px" y="0px" width="94.3px"
	 height="108.9px" viewBox="0 0 94.3 108.9" enable-background="new 0 0 94.3 108.9" xml:space="preserve">
<g id="shapes">
	<path fill="none" stroke="#BB8BB7" stroke-width="2" stroke-miterlimit="10" d="M92.3,54.5L1,107.2V1.7L92.3,54.5z"/>
</g>
<g id="words">
	<g>
		<path fill="#BB8BB7" d="M16.7,55.1v5.8h-1.1V48.1h3.7c1.1,0,2,0.3,2.6,0.9s0.9,1.5,0.9,2.6c0,0.7-0.2,1.3-0.5,1.8
			s-0.8,0.9-1.4,1.2c0.7,0.2,1.1,0.6,1.4,1.1c0.3,0.5,0.4,1.2,0.4,1.9v1.2c0,0.4,0,0.8,0.1,1.1s0.2,0.6,0.4,0.8v0.2h-1.1
			c-0.2-0.2-0.3-0.5-0.4-0.9c-0.1-0.4-0.1-0.8-0.1-1.2v-1.2c0-0.8-0.2-1.4-0.6-1.9c-0.4-0.5-0.9-0.7-1.6-0.7H16.7z M16.7,54.2h2.5
			c0.9,0,1.6-0.2,2-0.7s0.6-1.1,0.6-1.9c0-0.8-0.2-1.5-0.6-1.9s-1-0.7-1.9-0.7h-2.6V54.2z"/>
		<path fill="#BB8BB7" d="M27.1,60.9V48.1h3.1c1.3,0,2.4,0.5,3.3,1.6s1.3,2.4,1.3,4v1.7c0,1.6-0.4,3-1.3,4s-1.9,1.6-3.3,1.6H27.1z
			 M28.1,49v11h2.1c1,0,1.9-0.4,2.5-1.3c0.6-0.9,1-2,1-3.3v-1.7c0-1.3-0.3-2.5-1-3.3S31.3,49,30.2,49H28.1z"/>
		<path fill="#BB8BB7" d="M39.7,60.9h-1.1V48.1h1.1V60.9z"/>
		<path fill="#BB8BB7" d="M51.7,56.3c0,1.6-0.4,2.7-1.1,3.6s-1.7,1.2-3,1.2c-1.2,0-2.2-0.4-2.9-1.2s-1.1-2-1.1-3.6v-3.6
			c0-1.6,0.4-2.7,1.1-3.6s1.7-1.2,2.9-1.2c1.3,0,2.3,0.4,3,1.2s1.1,2,1.1,3.6V56.3z M50.7,52.7c0-1.3-0.3-2.2-0.8-2.9s-1.3-1-2.2-1
			c-0.9,0-1.7,0.3-2.2,1s-0.8,1.6-0.8,2.9v3.6c0,1.3,0.3,2.2,0.8,2.9s1.2,1,2.2,1c1,0,1.7-0.3,2.2-1s0.8-1.6,0.8-2.9V52.7z"/>
	</g>
</g>
<g id="Layer_3">
</g>
</svg>
