<?xml version="1.0" encoding="utf-8"?>
<!-- Generator: Adobe Illustrator 17.1.0, SVG Export Plug-In . SVG Version: 6.00 Build 0)  -->
<!DOCTYPE svg PUBLIC "-//W3C//DTD SVG 1.1//EN" "http://www.w3.org/Graphics/SVG/1.1/DTD/svg11.dtd">
<svg version="1.1" xmlns="http://www.w3.org/2000/svg" xmlns:xlink="http://www.w3.org/1999/xlink" x="0px" y="0px" width="134.1px"
	 height="126px" viewBox="0 0 134.1 126" enable-background="new 0 0 134.1 126" xml:space="preserve">
<g id="shapes">
	<path fill-rule="evenodd" clip-rule="evenodd" fill="none" stroke="#7196BF" stroke-width="2" stroke-miterlimit="10" d="M67,1.4
		L132.6,63L67,124.6L1.5,63L67,1.4z"/>
</g>
<g id="words">
	<g>
		<path fill="#7196BF" d="M45.6,67.7c-0.2,0.5-0.7,0.9-1.3,1.3s-1.4,0.6-2.4,0.6c-1.3,0-2.3-0.4-3.1-1.2s-1.2-2-1.2-3.5v-3.8
			c0-1.5,0.4-2.6,1.1-3.4s1.7-1.2,3-1.2c1.2,0,2.1,0.3,2.8,0.9s1,1.5,1,2.6l0,0.1h-1c0-0.9-0.3-1.5-0.8-2s-1.2-0.7-2.1-0.7
			c-0.9,0-1.7,0.3-2.2,0.9s-0.8,1.5-0.8,2.7v3.8c0,1.2,0.3,2.2,0.9,2.8s1.4,1,2.3,1c0.7,0,1.3-0.1,1.7-0.4s0.7-0.6,0.9-0.9V64h-2.7
			v-0.9h3.7V67.7z"/>
		<path fill="#7196BF" d="M51.2,69.4h-1.1V56.6h1.1V69.4z"/>
		<path fill="#7196BF" d="M62.5,57.5h-3.6v11.9h-1.1V57.5h-3.6v-0.9h8.2V57.5z"/>
		<path fill="#7196BF" d="M73.6,69.4h-1v-5.9h-5.7v5.9h-1.1V56.6h1.1v6h5.7v-6h1V69.4z"/>
		<path fill="#7196BF" d="M85.2,56.6v9c0,1.3-0.3,2.3-1,3s-1.6,1-2.7,1c-1.1,0-2-0.3-2.7-1s-1-1.7-1-3v-9h1v9c0,1,0.2,1.8,0.7,2.3
			c0.5,0.5,1.1,0.8,1.9,0.8c0.8,0,1.5-0.3,2-0.8c0.5-0.5,0.7-1.3,0.7-2.3v-9H85.2z"/>
		<path fill="#7196BF" d="M89.2,69.4V56.6h3.2c1.1,0,2,0.3,2.6,0.8C95.7,58,96,58.9,96,60c0,0.6-0.2,1.2-0.5,1.7
			c-0.3,0.5-0.8,0.8-1.3,1c0.7,0.1,1.2,0.5,1.6,1.1c0.4,0.6,0.6,1.3,0.6,2.1c0,1.1-0.3,2-0.9,2.6c-0.6,0.6-1.5,0.9-2.5,0.9H89.2z
			 M90.3,62.4h2.5c0.7,0,1.2-0.2,1.6-0.6c0.4-0.4,0.6-1,0.6-1.8c0-0.8-0.2-1.4-0.6-1.8c-0.4-0.4-1-0.6-1.8-0.6h-2.2V62.4z
			 M90.3,63.2v5.3H93c0.7,0,1.3-0.2,1.7-0.7c0.4-0.5,0.6-1.1,0.6-1.9c0-0.8-0.2-1.4-0.6-1.9s-0.9-0.7-1.6-0.7H90.3z"/>
	</g>
</g>
<g id="Layer_3">
</g>
</svg>
