<?xml version="1.0" encoding="utf-8"?>
<!-- Generator: Adobe Illustrator 17.1.0, SVG Export Plug-In . SVG Version: 6.00 Build 0)  -->
<!DOCTYPE svg PUBLIC "-//W3C//DTD SVG 1.1//EN" "http://www.w3.org/Graphics/SVG/1.1/DTD/svg11.dtd">
<svg version="1.1" xmlns="http://www.w3.org/2000/svg" xmlns:xlink="http://www.w3.org/1999/xlink" x="0px" y="0px" width="146px"
	 height="93.1px" viewBox="0 0 146 93.1" enable-background="new 0 0 146 93.1" xml:space="preserve">
<g id="shapes">
	<path fill-rule="evenodd" clip-rule="evenodd" fill="none" stroke="#CCA82C" stroke-width="2" stroke-miterlimit="10" d="M73,1.2
		l71.2,45.4L73,91.9L1.9,46.5L73,1.2z"/>
</g>
<g id="words">
	<g>
		<path fill="#CCA82C" d="M53.6,52.9V40.1h3.2c1.1,0,2,0.3,2.6,0.8s0.9,1.4,0.9,2.5c0,0.6-0.2,1.2-0.5,1.7s-0.8,0.8-1.3,1
			c0.7,0.1,1.2,0.5,1.6,1.1s0.6,1.3,0.6,2.1c0,1.1-0.3,2-0.9,2.6s-1.5,0.9-2.5,0.9H53.6z M54.7,45.9h2.5c0.7,0,1.2-0.2,1.6-0.6
			c0.4-0.4,0.6-1,0.6-1.8c0-0.8-0.2-1.4-0.6-1.8c-0.4-0.4-1-0.6-1.8-0.6h-2.2V45.9z M54.7,46.8V52h2.7c0.7,0,1.3-0.2,1.7-0.7
			c0.4-0.5,0.6-1.1,0.6-1.9c0-0.8-0.2-1.4-0.6-1.9c-0.4-0.5-0.9-0.7-1.6-0.7H54.7z"/>
		<path fill="#CCA82C" d="M65.6,52h5.2v0.9h-6.2V40.1h1.1V52z"/>
		<path fill="#CCA82C" d="M81,48.3c0,1.6-0.4,2.7-1.1,3.6s-1.7,1.2-3,1.2c-1.2,0-2.2-0.4-2.9-1.2c-0.7-0.8-1.1-2-1.1-3.6v-3.6
			c0-1.6,0.4-2.7,1.1-3.6s1.7-1.2,2.9-1.2c1.3,0,2.3,0.4,3,1.2s1.1,2,1.1,3.6V48.3z M80,44.7c0-1.3-0.3-2.2-0.8-2.9s-1.3-1-2.2-1
			c-0.9,0-1.7,0.3-2.2,1S74,43.5,74,44.7v3.6c0,1.3,0.3,2.2,0.8,2.9s1.2,1,2.2,1c1,0,1.7-0.3,2.2-1s0.8-1.6,0.8-2.9V44.7z"/>
		<path fill="#CCA82C" d="M92.4,51.2c-0.2,0.5-0.7,0.9-1.3,1.3s-1.4,0.6-2.4,0.6c-1.3,0-2.3-0.4-3.1-1.2s-1.2-2-1.2-3.5v-3.8
			c0-1.5,0.4-2.6,1.1-3.4s1.7-1.2,3-1.2c1.2,0,2.1,0.3,2.8,0.9s1,1.5,1,2.6l0,0.1h-1c0-0.9-0.3-1.5-0.8-2s-1.2-0.7-2.1-0.7
			c-0.9,0-1.7,0.3-2.2,0.9s-0.8,1.5-0.8,2.7v3.8c0,1.2,0.3,2.2,0.9,2.8s1.4,1,2.3,1c0.7,0,1.3-0.1,1.7-0.4s0.7-0.6,0.9-0.9v-3.3
			h-2.7v-0.9h3.7V51.2z"/>
	</g>
</g>
<g id="Layer_3">
</g>
</svg>
