<?xml version="1.0" encoding="utf-8"?>
<!-- Generator: Adobe Illustrator 17.1.0, SVG Export Plug-In . SVG Version: 6.00 Build 0)  -->
<!DOCTYPE svg PUBLIC "-//W3C//DTD SVG 1.1//EN" "http://www.w3.org/Graphics/SVG/1.1/DTD/svg11.dtd">
<svg version="1.1" xmlns="http://www.w3.org/2000/svg" xmlns:xlink="http://www.w3.org/1999/xlink" x="0px" y="0px" width="120px"
	 height="100px" viewBox="0 0 120 100" enable-background="new 0 0 120 100" xml:space="preserve">
<g id="shapes">
</g>
<g id="words">
	<g>
		<path fill="#80B668" d="M16.6,45.9h-1.1V33.1h1.1V45.9z"/>
		<path fill="#80B668" d="M29,45.9H28l-5.7-10.7l-0.1,0v10.7h-1.1V33.1h1.1l5.7,10.7l0.1,0V33.1H29V45.9z"/>
		<path fill="#80B668" d="M40.2,34h-3.6v11.9h-1.1V34H32v-0.9h8.2V34z"/>
		<path fill="#80B668" d="M49.6,39.7h-5V45h5.8v0.9h-6.8V33.1h6.8V34h-5.7v4.8h5V39.7z"/>
		<path fill="#80B668" d="M54.8,40.1v5.8h-1.1V33.1h3.7c1.1,0,2,0.3,2.6,0.9s0.9,1.5,0.9,2.6c0,0.7-0.2,1.3-0.5,1.8
			s-0.8,0.9-1.4,1.2c0.7,0.2,1.1,0.6,1.4,1.1c0.3,0.5,0.4,1.2,0.4,1.9v1.2c0,0.4,0,0.8,0.1,1.1s0.2,0.6,0.4,0.8v0.2h-1.1
			C60.1,45.7,60,45.4,60,45c-0.1-0.4-0.1-0.8-0.1-1.2v-1.2c0-0.8-0.2-1.4-0.6-1.9c-0.4-0.5-0.9-0.7-1.6-0.7H54.8z M54.8,39.2h2.5
			c0.9,0,1.6-0.2,2-0.7s0.6-1.1,0.6-1.9c0-0.8-0.2-1.5-0.6-1.9s-1-0.7-1.9-0.7h-2.6V39.2z"/>
		<path fill="#80B668" d="M71.3,39.9h-5.1v6h-1.1V33.1H72V34h-5.8v5h5.1V39.9z"/>
		<path fill="#80B668" d="M80.6,42.4h-4.7l-1.1,3.6h-1.1l4.1-12.8h1l4,12.8h-1.1L80.6,42.4z M76.2,41.4h4.1l-2-6.6h-0.1L76.2,41.4z"
			/>
		<path fill="#80B668" d="M92.8,42.2L92.8,42.2c0,1.3-0.3,2.3-1,2.9s-1.5,1-2.7,1c-1.2,0-2.1-0.4-2.8-1.2s-1-2-1-3.6v-3.5
			c0-1.5,0.3-2.7,1-3.6s1.6-1.3,2.8-1.3c1.1,0,2,0.3,2.7,1s1,1.6,1,2.9l0,0.1h-1c0-1-0.3-1.8-0.7-2.2s-1.1-0.7-1.9-0.7
			c-0.9,0-1.6,0.3-2.1,1s-0.7,1.6-0.7,2.9v3.6c0,1.3,0.2,2.2,0.7,2.9s1.2,1,2.1,1c0.9,0,1.5-0.2,1.9-0.7c0.4-0.5,0.7-1.2,0.7-2.3
			H92.8z"/>
		<path fill="#80B668" d="M102.7,39.7h-5V45h5.8v0.9h-6.8V33.1h6.8V34h-5.7v4.8h5V39.7z"/>
		<path fill="#80B668" d="M34.2,64.4c0-0.7-0.2-1.3-0.6-1.7c-0.4-0.4-1.1-0.8-2.1-1.2c-1.2-0.4-2-0.8-2.6-1.4s-0.9-1.3-0.9-2.3
			c0-1,0.3-1.8,1-2.4s1.5-0.9,2.6-0.9c1.1,0,2,0.4,2.7,1.1s1,1.6,1,2.7l0,0.1h-1c0-0.8-0.2-1.5-0.7-2.1s-1.1-0.8-1.9-0.8
			c-0.8,0-1.4,0.2-1.9,0.7s-0.7,1-0.7,1.7c0,0.6,0.2,1.2,0.6,1.6s1.2,0.8,2.2,1.1c1.1,0.4,2,0.8,2.6,1.4s0.9,1.4,0.9,2.4
			c0,1-0.3,1.8-1,2.4s-1.6,0.9-2.7,0.9c-1.1,0-2-0.3-2.8-1s-1.2-1.6-1.1-2.8l0-0.1h1c0,1,0.3,1.7,0.9,2.2s1.3,0.7,2.1,0.7
			c0.8,0,1.4-0.2,1.9-0.7C34,65.7,34.2,65.1,34.2,64.4z"/>
		<path fill="#80B668" d="M45.9,63.8L45.9,63.8c0,1.3-0.3,2.3-1,2.9s-1.5,1-2.7,1c-1.2,0-2.1-0.4-2.8-1.2s-1-2-1-3.6v-3.5
			c0-1.5,0.3-2.7,1-3.6s1.6-1.3,2.8-1.3c1.1,0,2,0.3,2.7,1s1,1.6,1,2.9l0,0.1h-1c0-1-0.3-1.8-0.7-2.2s-1.1-0.7-1.9-0.7
			c-0.9,0-1.6,0.3-2.1,1s-0.7,1.6-0.7,2.9v3.6c0,1.3,0.2,2.2,0.7,2.9s1.2,1,2.1,1c0.9,0,1.5-0.2,1.9-0.7s0.7-1.2,0.7-2.3H45.9z"/>
		<path fill="#80B668" d="M57.5,67.5h-1v-5.9h-5.7v5.9h-1.1V54.7h1.1v6h5.7v-6h1V67.5z"/>
		<path fill="#80B668" d="M69.4,62.9c0,1.6-0.4,2.7-1.1,3.6s-1.7,1.2-3,1.2c-1.2,0-2.2-0.4-2.9-1.2s-1.1-2-1.1-3.6v-3.6
			c0-1.6,0.4-2.7,1.1-3.6s1.7-1.2,2.9-1.2c1.3,0,2.3,0.4,3,1.2s1.1,2,1.1,3.6V62.9z M68.3,59.3c0-1.3-0.3-2.2-0.8-2.9s-1.3-1-2.2-1
			c-0.9,0-1.7,0.3-2.2,1s-0.8,1.6-0.8,2.9v3.6c0,1.3,0.3,2.2,0.8,2.9s1.2,1,2.2,1c1,0,1.7-0.3,2.2-1s0.8-1.6,0.8-2.9V59.3z"/>
		<path fill="#80B668" d="M80.7,62.9c0,1.6-0.4,2.7-1.1,3.6s-1.7,1.2-3,1.2c-1.2,0-2.2-0.4-2.9-1.2s-1.1-2-1.1-3.6v-3.6
			c0-1.6,0.4-2.7,1.1-3.6s1.7-1.2,2.9-1.2c1.3,0,2.3,0.4,3,1.2s1.1,2,1.1,3.6V62.9z M79.6,59.3c0-1.3-0.3-2.2-0.8-2.9s-1.3-1-2.2-1
			c-0.9,0-1.7,0.3-2.2,1s-0.8,1.6-0.8,2.9v3.6c0,1.3,0.3,2.2,0.8,2.9s1.2,1,2.2,1c1,0,1.7-0.3,2.2-1s0.8-1.6,0.8-2.9V59.3z"/>
		<path fill="#80B668" d="M85.5,66.6h5.2v0.9h-6.2V54.7h1.1V66.6z"/>
	</g>
</g>
<g id="Layer_3">
	<g>
		<path fill="#80B668" d="M118,2v96H2V2H118 M120,0H0v100h120V0L120,0z"/>
	</g>
</g>
</svg>
