<?xml version="1.0" encoding="utf-8"?>
<!-- Generator: Adobe Illustrator 17.1.0, SVG Export Plug-In . SVG Version: 6.00 Build 0)  -->
<!DOCTYPE svg PUBLIC "-//W3C//DTD SVG 1.1//EN" "http://www.w3.org/Graphics/SVG/1.1/DTD/svg11.dtd">
<svg version="1.1" xmlns="http://www.w3.org/2000/svg" xmlns:xlink="http://www.w3.org/1999/xlink" x="0px" y="0px" width="120.3px"
	 height="120.3px" viewBox="0 0 120.3 120.3" enable-background="new 0 0 120.3 120.3" xml:space="preserve">
<g id="shapes">
	<path fill="none" stroke="#1BAD9A" stroke-width="2" stroke-miterlimit="10" d="M101.7,101.7l-49.9,17.5L7,91L1,38.5L38.5,1L91,7
		l28.1,44.8L101.7,101.7z"/>
</g>
<g id="words">
	<g>
		<path fill="#1BAD9A" d="M37.7,51.2c0,1.6-0.4,2.7-1.1,3.6s-1.7,1.2-3,1.2c-1.2,0-2.2-0.4-2.9-1.2s-1.1-2-1.1-3.6v-3.6
			c0-1.6,0.4-2.7,1.1-3.6s1.7-1.2,2.9-1.2c1.3,0,2.3,0.4,3,1.2s1.1,2,1.1,3.6V51.2z M36.6,47.6c0-1.3-0.3-2.2-0.8-2.9s-1.3-1-2.2-1
			c-0.9,0-1.7,0.3-2.2,1s-0.8,1.6-0.8,2.9v3.6c0,1.3,0.3,2.2,0.8,2.9s1.2,1,2.2,1c1,0,1.7-0.3,2.2-1s0.8-1.6,0.8-2.9V47.6z"/>
		<path fill="#1BAD9A" d="M41.5,55.8V43h3.2c1.1,0,2,0.3,2.6,0.8c0.6,0.6,0.9,1.4,0.9,2.5c0,0.6-0.2,1.2-0.5,1.7
			c-0.3,0.5-0.8,0.8-1.3,1c0.7,0.1,1.2,0.5,1.6,1.1c0.4,0.6,0.6,1.3,0.6,2.1c0,1.1-0.3,2-0.9,2.6c-0.6,0.6-1.5,0.9-2.5,0.9H41.5z
			 M42.5,48.7H45c0.7,0,1.2-0.2,1.6-0.6c0.4-0.4,0.6-1,0.6-1.8c0-0.8-0.2-1.4-0.6-1.8c-0.4-0.4-1-0.6-1.8-0.6h-2.2V48.7z M42.5,49.6
			v5.3h2.7c0.7,0,1.3-0.2,1.7-0.7c0.4-0.5,0.6-1.1,0.6-1.9c0-0.8-0.2-1.4-0.6-1.9s-0.9-0.7-1.6-0.7H42.5z"/>
		<path fill="#1BAD9A" d="M56.9,43H58v9.2c0,1.2-0.3,2.1-0.9,2.8s-1.3,1-2.3,1c-1,0-1.8-0.3-2.4-0.9s-0.9-1.5-0.8-2.7l0,0h1
			c0,0.9,0.2,1.6,0.6,2.1s0.9,0.7,1.6,0.7c0.6,0,1.1-0.3,1.5-0.8s0.6-1.2,0.6-2.1V43z"/>
		<path fill="#1BAD9A" d="M68.3,49.6h-5v5.3H69v0.9h-6.8V43H69v0.9h-5.7v4.8h5V49.6z"/>
		<path fill="#1BAD9A" d="M79.4,52.1L79.4,52.1c0,1.3-0.3,2.3-1,2.9s-1.5,1-2.7,1c-1.2,0-2.1-0.4-2.8-1.2s-1-2-1-3.6v-3.5
			c0-1.5,0.3-2.7,1-3.6s1.6-1.3,2.8-1.3c1.1,0,2,0.3,2.7,1s1,1.6,1,2.9l0,0.1h-1c0-1-0.3-1.8-0.7-2.2s-1.1-0.7-1.9-0.7
			c-0.9,0-1.6,0.3-2.1,1S73,46.4,73,47.6v3.6c0,1.3,0.2,2.2,0.7,2.9s1.2,1,2.1,1c0.9,0,1.5-0.2,1.9-0.7c0.4-0.5,0.7-1.2,0.7-2.3
			H79.4z"/>
		<path fill="#1BAD9A" d="M90.1,43.9h-3.6v11.9h-1.1V43.9h-3.6V43h8.2V43.9z"/>
		<path fill="#1BAD9A" d="M26.7,76.5h5.2v0.9h-6.2V64.6h1.1V76.5z"/>
		<path fill="#1BAD9A" d="M41,73.9h-4.7l-1.1,3.6h-1.1l4.1-12.8h1l4,12.8h-1.1L41,73.9z M36.6,72.9h4.1l-2-6.6h-0.1L36.6,72.9z"/>
		<path fill="#1BAD9A" d="M52.4,65.5h-3.6v11.9h-1.1V65.5h-3.6v-0.9h8.2V65.5z"/>
		<path fill="#1BAD9A" d="M61.7,71.2h-5v5.3h5.8v0.9h-6.8V64.6h6.8v0.9h-5.7v4.8h5V71.2z"/>
		<path fill="#1BAD9A" d="M66.9,71.6v5.8h-1.1V64.6h3.7c1.1,0,2,0.3,2.6,0.9c0.6,0.6,0.9,1.5,0.9,2.6c0,0.7-0.2,1.3-0.5,1.8
			c-0.3,0.5-0.8,0.9-1.4,1.2c0.7,0.2,1.1,0.6,1.4,1.1s0.4,1.2,0.4,1.9v1.2c0,0.4,0,0.8,0.1,1.1c0.1,0.3,0.2,0.6,0.4,0.8v0.2h-1.1
			c-0.2-0.2-0.3-0.5-0.4-0.9S72,75.7,72,75.3v-1.2c0-0.8-0.2-1.4-0.6-1.9c-0.4-0.5-0.9-0.7-1.6-0.7H66.9z M66.9,70.7h2.5
			c0.9,0,1.6-0.2,2-0.7s0.6-1.1,0.6-1.9c0-0.8-0.2-1.5-0.6-1.9s-1-0.7-1.9-0.7h-2.6V70.7z"/>
		<path fill="#1BAD9A" d="M83,73.9h-4.7l-1.1,3.6h-1.1l4.1-12.8h1l4,12.8h-1.1L83,73.9z M78.7,72.9h4.1l-2-6.6h-0.1L78.7,72.9z"/>
		<path fill="#1BAD9A" d="M89.5,76.5h5.2v0.9h-6.2V64.6h1.1V76.5z"/>
	</g>
</g>
<g id="Layer_3">
</g>
</svg>
